<?xml version="1.0" encoding="UTF-8"?>
<svg id="Layer_1" data-name="Layer 1" xmlns="http://www.w3.org/2000/svg" viewBox="0 0 841.88983 595.27557">
  <defs>
    <style>
      .cls-1 {
        fill: #b4b534;
      }

      .cls-2 {
        fill: #ab3c27;
      }

      .cls-3 {
        fill: #191616;
      }

      .cls-4 {
        fill: #1c3360;
      }
    </style>
  </defs>
  <g>
    <path class="cls-3" d="m428.81738,332.66406c-4.60645-5.7832-6.90869-14.24414-6.90869-25.38672v-48.52344c0-13.38867,2.81104-23.0293,8.43506-28.92139,5.62402-5.88965,13.79004-8.83691,24.50293-8.83691,10.81738,0,18.95996,3.16064,24.42285,9.47949,5.46289,6.32178,8.08594,16.65771,7.87305,31.01025h-17.99609c0-9.10303-1.09961-15.58545-3.29297-19.44141-2.19727-3.85645-5.97266-5.78467-11.32812-5.78467-5.1416,0-8.78418,1.63477-10.92578,4.90088-2.14453,3.26855-3.21387,8.06104-3.21387,14.38037v51.25439c0,7.39258,1.28516,12.45312,3.85645,15.18359,2.57031,2.73242,5.83691,4.09766,9.80078,4.09766,5.67773,0,9.56055-1.84766,11.65039-5.54297,2.08789-3.69531,3.13281-8.27539,3.13281-13.73828v-13.81689h-14.46191v-13.979h32.93848v60.73535h-13.65625l-1.28516-16.38867h-.80469c-1.07227,5.67773-3.58984,10.09766-7.55078,13.25586-3.96484,3.1582-9.05371,4.73828-15.26465,4.73828-8.67676,0-15.31934-2.89062-19.92383-8.67578Z"/>
    <path class="cls-3" d="m503.69238,222.60205h22.33398l22.17285,75.19531,1.44629,6.5874h.80273v-81.78271h17.35352v117.13232h-22.33398l-22.49512-75.35693-1.28516-5.62354h-.80273v80.98047h-17.19238v-117.13232Z"/>
    <path class="cls-3" d="m601.38281,222.60205h26.0293l22.33301,117.13232h-18.47754l-3.85547-23.29883h-26.0293l-3.69629,23.29883h-18.6377l22.33398-117.13232Zm23.94043,79.69482l-7.07031-39.84766-3.21289-22.81543h-1.28516l-3.05371,22.81543-7.22949,39.84766h21.85156Z"/>
    <path class="cls-3" d="m661.15332,222.60205h26.67188c10.92578,0,19.14551,2.75928,24.66309,8.2749,5.51562,5.51807,8.27539,14.11426,8.27539,25.78809,0,8.67676-1.26074,15.56055-3.77637,20.64697-2.51758,5.08887-6.10547,8.75684-10.76465,11.00586-4.66016,2.25-10.15039,3.37402-16.46973,3.37402h-10.12207v48.04248h-18.47754v-117.13232Zm18.47754,15.10352v40.16846h8.35449c5.46289,0,9.23926-1.4458,11.32812-4.33789s3.13281-6.74854,3.13281-11.56885v-8.83691c0-10.2832-4.82031-15.4248-14.46094-15.4248h-8.35449Z"/>
    <path class="cls-3" d="m734.58105,222.60205h18.47754v117.13232h-18.47754v-117.13232Z"/>
  </g>
  <g>
    <path class="cls-3" d="m437.50488,365.03906v40.07422h-7.26855v-40.07422h-8.28076v-6.00586h23.76709v6.00586h-8.21777Z"/>
    <path class="cls-3" d="m451.22168,359.0332h19.78516v6.00586h-12.51562v13.52734h10.68262v5.87695h-10.68262v14.66602h12.83105v6.00391h-20.10059v-46.08008Z"/>
    <path class="cls-3" d="m482.25781,404.32422c-1.93945-.94922-3.4248-2.50781-4.45605-4.67773-1.0332-2.16992-1.54883-5.08789-1.54883-8.75586v-17.63477c0-3.66602.51562-6.58398,1.54883-8.75391,1.03125-2.16992,2.5166-3.73047,4.45605-4.67773,1.9375-.94922,4.25586-1.42188,6.95312-1.42188,4.38184,0,7.61621,1.29492,9.70215,3.88672s3.10742,6.79492,3.06543,12.61133h-7.14258c0-3.75195-.41016-6.4375-1.23242-8.06055-.82129-1.62109-2.30664-2.43359-4.45605-2.43359-2.06543,0-3.51855.64258-4.36133,1.92773-.84375,1.28711-1.26465,3.17188-1.26465,5.6582v20.16406c0,2.94922.51562,4.95117,1.54883,6.00391,1.03223,1.05469,2.3916,1.58008,4.07715,1.58008,2.19043,0,3.69727-.82031,4.51953-2.46484.82129-1.64258,1.21094-4.31836,1.16895-8.02734h7.14258c.04199,5.85742-.99023,10.07227-3.09668,12.64258-2.10742,2.57031-5.33105,3.85547-9.6709,3.85547-2.69727,0-5.01562-.47461-6.95312-1.42188Z"/>
    <path class="cls-3" d="m508.17383,359.0332h7.26953v19.5957h10.23926v-19.5957h7.26953v46.08008h-7.26953v-20.41602h-10.23926v20.41602h-7.26953v-46.08008Z"/>
    <path class="cls-3" d="m540.2207,359.0332h8.78613l8.72266,29.58203.56934,2.5918h.31641v-32.17383h6.82617v46.08008h-8.78613l-8.84961-29.64453-.50488-2.21289h-.31641v31.85742h-6.76367v-46.08008Z"/>
    <path class="cls-3" d="m577.89453,404.32422c-1.93945-.94922-3.4248-2.50781-4.45605-4.67773-1.0332-2.16992-1.54883-5.08789-1.54883-8.75586v-17.63477c0-3.66602.51562-6.58398,1.54883-8.75391,1.03125-2.16992,2.5166-3.73047,4.45605-4.67773,1.9375-.94922,4.25586-1.42188,6.95312-1.42188,2.69629,0,5.01367.47266,6.95312,1.42188,1.9375.94727,3.42285,2.50781,4.45605,4.67773,1.03223,2.16992,1.54883,5.08789,1.54883,8.75391v17.63477c0,3.66797-.5166,6.58594-1.54883,8.75586-1.0332,2.16992-2.51855,3.72852-4.45605,4.67773-1.93945.94727-4.25684,1.42188-6.95312,1.42188-2.69727,0-5.01562-.47461-6.95312-1.42188Zm11.09277-6.16406c1.03223-1.05273,1.54883-3.05469,1.54883-6.00391v-20.16406c0-2.48633-.42188-4.37109-1.26367-5.6582-.84375-1.28516-2.31836-1.92773-4.4248-1.92773-2.06543,0-3.53027.64258-4.39355,1.92773-.86426,1.28711-1.2959,3.17188-1.2959,5.6582v20.16406c0,2.94922.51562,4.95117,1.54883,6.00391,1.03223,1.05469,2.41211,1.58008,4.14062,1.58008,1.72754,0,3.10645-.52539,4.13965-1.58008Z"/>
    <path class="cls-3" d="m604.31543,359.0332h7.26953v40.07617h10.80859v6.00391h-18.07812v-46.08008Z"/>
    <path class="cls-3" d="m631.05371,404.32422c-1.93945-.94922-3.4248-2.50781-4.45605-4.67773-1.0332-2.16992-1.54883-5.08789-1.54883-8.75586v-17.63477c0-3.66602.51562-6.58398,1.54883-8.75391,1.03125-2.16992,2.5166-3.73047,4.45605-4.67773,1.9375-.94922,4.25586-1.42188,6.95312-1.42188,2.69629,0,5.01367.47266,6.95312,1.42188,1.9375.94727,3.42285,2.50781,4.45605,4.67773,1.03223,2.16992,1.54883,5.08789,1.54883,8.75391v17.63477c0,3.66797-.5166,6.58594-1.54883,8.75586-1.0332,2.16992-2.51855,3.72852-4.45605,4.67773-1.93945.94727-4.25684,1.42188-6.95312,1.42188-2.69727,0-5.01562-.47461-6.95312-1.42188Zm11.09277-6.16406c1.03223-1.05273,1.54883-3.05469,1.54883-6.00391v-20.16406c0-2.48633-.42188-4.37109-1.26367-5.6582-.84375-1.28516-2.31836-1.92773-4.4248-1.92773-2.06543,0-3.53027.64258-4.39355,1.92773-.86426,1.28711-1.2959,3.17188-1.2959,5.6582v20.16406c0,2.94922.51562,4.95117,1.54883,6.00391,1.03223,1.05469,2.41211,1.58008,4.14062,1.58008,1.72754,0,3.10645-.52539,4.13965-1.58008Z"/>
    <path class="cls-3" d="m659.6875,402.33203c-1.8125-2.27539-2.71777-5.60352-2.71777-9.98633v-19.08984c0-5.26758,1.10547-9.05859,3.31836-11.37695,2.21191-2.31836,5.4248-3.47656,9.63965-3.47656,4.25586,0,7.45801,1.24219,9.60742,3.72852s3.18164,6.55273,3.09766,12.19922h-7.08008c0-3.58008-.43262-6.13086-1.2959-7.64844-.86328-1.51562-2.34961-2.27539-4.45605-2.27539-2.02246,0-3.45508.64258-4.29785,1.92773-.84375,1.28711-1.26465,3.17188-1.26465,5.6582v20.16406c0,2.90625.50586,4.89844,1.51758,5.97266,1.01074,1.07422,2.2959,1.61133,3.85547,1.61133,2.2334,0,3.76074-.72656,4.58301-2.17969.82129-1.45508,1.23242-3.25586,1.23242-5.4043v-5.43555h-5.68848v-5.5h12.95703v23.89258h-5.37207l-.50586-6.44727h-.31641c-.42188,2.23438-1.41211,3.97266-2.9707,5.21484-1.55957,1.24219-3.56152,1.86523-6.00488,1.86523-3.41309,0-6.02637-1.13867-7.83789-3.41406Z"/>
    <path class="cls-3" d="m689.14258,359.0332h7.26953v46.08008h-7.26953v-46.08008Z"/>
    <path class="cls-3" d="m703.68164,359.0332h19.78516v6.00586h-12.51562v13.52734h10.68262v5.87695h-10.68262v14.66602h12.83105v6.00391h-20.10059v-46.08008Z"/>
    <path class="cls-3" d="m731.01953,401.82617c-1.83301-2.61133-2.72852-6.27734-2.68652-10.99805h6.89062c0,3.11914.39941,5.39453,1.2002,6.82617.80078,1.43359,2.2334,2.15039,4.29883,2.15039,1.76953,0,3.01172-.58008,3.72949-1.73828.71582-1.1582,1.07422-2.51758,1.07422-4.07812,0-1.72656-.34766-3.14844-1.04297-4.26562s-1.60156-2.0957-2.71777-2.93945c-1.11719-.8418-2.30762-1.64453-3.57129-2.40234-1.51758-.92578-3.01367-1.94922-4.48828-3.06641-1.47559-1.11523-2.69727-2.53711-3.66602-4.26562-.96973-1.72852-1.4541-3.93945-1.4541-6.63672,0-3.96094,1.0957-6.95312,3.28711-8.97656,2.19043-2.02148,5.07715-3.0332,8.66016-3.0332,4.04492,0,7.11035,1.16797,9.19629,3.50781,2.08594,2.33789,3.12891,6.01562,3.12891,11.0293h-7.01562c0-3.07422-.41113-5.28711-1.2334-6.63672-.82129-1.34766-2.20215-2.02148-4.13965-2.02148-1.8125,0-3.06543.57812-3.76074,1.73633-.69531,1.16016-1.04297,2.45703-1.04297,3.88867,0,1.47461.3252,2.7168.97949,3.72852.65234,1.01172,1.5166,1.89648,2.5918,2.65625,1.07422.75781,2.22168,1.49609,3.44434,2.21094,1.22168.67578,2.43359,1.42188,3.63477,2.24414s2.31738,1.79102,3.35059,2.9082c1.03125,1.11719,1.85352,2.45508,2.46484,4.01367.61035,1.55859.91699,3.45508.91699,5.68945,0,2.94922-.55957,5.33008-1.67578,7.14258-1.11719,1.8125-2.61328,3.13867-4.4873,3.98242-1.87598.8418-3.97266,1.26367-6.29004,1.26367-4.55078,0-7.74316-1.30664-9.57617-3.91992Z"/>
  </g>
  <g>
    <path class="cls-1" d="m142.30468,210.18355c10.94196,23.3661,21.88393,46.73221,32.8259,70.09833,1.22624-5.77643,3.68629-14.12488,9.02385-22.95197,16.36235-27.05963,44.84821-33.9473,48.57796-34.78665,28.26268-6.36035,50.41357,5.58548,56.37338,9.08829,15.25702,8.96712,23.73965,20.98511,27.66006,27.4639h66.30569c-3.58157-12.11671-14.52179-43.14204-45.11926-68.13663-6.81177-5.56441-31.68713-24.78995-69.83678-29.94873-34.55301-4.67242-61.07584,4.75299-69.05208,7.84683-30.65427,11.89024-48.93956,31.71919-56.75873,41.32663Z"/>
    <rect class="cls-2" x="234.96264" y="280.28187" width="150.8676" height="36.29158"/>
    <path class="cls-4" d="m316.50427,337.43294h67.61349c-3.76663,12.2984-13.79706,39.1626-39.40851,63.06876-25.68677,23.97644-53.27231,32.12048-65.80437,35.0166-18.33107-21.23004-36.66212-42.46005-54.99319-63.69009,9.07565,2.82376,31.64911,8.51364,54.47807-.20163,8.61105-3.28738,14.86459-7.71045,16.27527-8.7262,12.08618-8.70267,18.63373-19.27625,21.83923-25.46744Z"/>
    <path class="cls-1" d="m82.66879,240.00149c1.70692,40.90678,10.63128,72.77211,18.04771,93.37724,11.45876,31.83597,26.10387,55.64548,33.02206,66.76343,6.46987,10.39749,12.43082,18.86203,16.96877,25.01178-7.53036-5.77737-17.64643-14.35266-28.15049-26.0907-12.48409-13.95065-38.80515-43.36383-45.90395-88.17874-4.56528-28.82074.44737-53.73456,6.0159-70.88301Z"/>
    <path class="cls-2" d="m96.26996,199.0672c13.04214,48.23051,29.19822,87.05891,42.76521,115.34837,14.92104,31.11288,31.1135,64.34039,61.5976,101.61642,23.39725,28.6102,46.67116,49.15967,63.95164,62.77463-18.27167-6.27774-44.80785-17.70551-72.19083-38.8418-10.46002-8.07385-29.58633-23.06927-47.4733-48.258-26.51675-37.34131-34.15894-74.34033-39.4957-100.17783-4.39867-21.29584-6.3618-42.27692-7.06215-49.95815-1.55348-17.03815-2.01277-31.56726-2.09248-42.50366Z"/>
    <path class="cls-4" d="m98.624,154.63454c7.62118,26.80817,14.93266,49.18256,20.69601,65.91336,9.54752,27.71609,23.13982,66.76581,46.39436,114.26944,7.63411,15.59473,15.37727,31.30206,27.85625,51.39673,6.05545,9.75098,28.30742,44.82031,56.49716,67.87506,8.0934,6.61911,15.01711,10.89096,19.71515,13.53577,6.35265,3.57626,15.44843,8.61108,28.34666,11.67215,9.00592,2.13733,17.00269,2.63297,23.24625,2.55023-3.78226-1.37079-9.24036-3.51617-15.56747-6.63394-18.42673-9.08002-34.06242-21.40024-53.25575-42.44144-22.67966-24.86319-36.45294-46.69373-51.91985-71.47153-14.92755-23.91376-24.90477-42.56873-32.56435-56.9549-18.08726-33.97134-30.27801-60.95671-45.70777-95.27356-10.04346-22.33736-18.10223-41.09988-23.73666-54.43738Z"/>
  </g>
</svg>